<svg xmlns="http://www.w3.org/2000/svg" xmlns:xlink="http://www.w3.org/1999/xlink" width="500" zoomAndPan="magnify" viewBox="0 0 375 374.999991" height="500" preserveAspectRatio="xMidYMid meet" version="1.0"><defs><g/><clipPath id="dbad1a6225"><path d="M 54.535156 154.804688 L 83 154.804688 L 83 183.304688 L 54.535156 183.304688 Z M 54.535156 154.804688 " clip-rule="nonzero"/></clipPath><clipPath id="96ce0e6a3d"><path d="M 160.375 147.503906 L 174.976562 147.503906 L 174.976562 162.105469 L 160.375 162.105469 Z M 160.375 147.503906 " clip-rule="nonzero"/></clipPath><clipPath id="8b15ce8cc5"><path d="M 167.675781 147.503906 C 163.644531 147.503906 160.375 150.773438 160.375 154.804688 C 160.375 158.835938 163.644531 162.105469 167.675781 162.105469 C 171.707031 162.105469 174.976562 158.835938 174.976562 154.804688 C 174.976562 150.773438 171.707031 147.503906 167.675781 147.503906 Z M 167.675781 147.503906 " clip-rule="nonzero"/></clipPath></defs><g fill="#000000" fill-opacity="1"><g transform="translate(94.581914, 196.338461)"><g><path d="M 5.59375 -55.953125 L 32.046875 -55.953125 C 38.171875 -55.953125 43.601562 -54.804688 48.34375 -52.515625 C 53.09375 -50.222656 56.769531 -46.96875 59.375 -42.75 C 61.988281 -38.539062 63.296875 -33.613281 63.296875 -27.96875 C 63.296875 -22.320312 61.988281 -17.394531 59.375 -13.1875 C 56.769531 -8.976562 53.09375 -5.726562 48.34375 -3.4375 C 43.601562 -1.144531 38.171875 0 32.046875 0 L 5.59375 0 Z M 31.40625 -12.625 C 36.207031 -12.625 40.054688 -13.984375 42.953125 -16.703125 C 45.859375 -19.421875 47.3125 -23.175781 47.3125 -27.96875 C 47.3125 -32.769531 45.859375 -36.523438 42.953125 -39.234375 C 40.054688 -41.953125 36.207031 -43.3125 31.40625 -43.3125 L 21.421875 -43.3125 L 21.421875 -12.625 Z M 31.40625 -12.625 "/></g></g></g><g fill="#000000" fill-opacity="1"><g transform="translate(55.940137, 227.053696)"><g><path d="M 31.5625 0.96875 C 23.550781 0.96875 17.316406 -1.25 12.859375 -5.6875 C 8.398438 -10.125 6.171875 -16.453125 6.171875 -24.671875 L 6.171875 -56.09375 L 19.15625 -56.09375 L 19.15625 -25.15625 C 19.15625 -15.113281 23.320312 -10.09375 31.65625 -10.09375 C 35.707031 -10.09375 38.800781 -11.304688 40.9375 -13.734375 C 43.082031 -16.171875 44.15625 -19.976562 44.15625 -25.15625 L 44.15625 -56.09375 L 56.96875 -56.09375 L 56.96875 -24.671875 C 56.96875 -16.453125 54.738281 -10.125 50.28125 -5.6875 C 45.820312 -1.25 39.582031 0.96875 31.5625 0.96875 Z M 31.5625 0.96875 "/></g></g></g><g clip-path="url(#dbad1a6225)"><path fill="#5271ff" d="M 68.46875 154.832031 C 68.304688 154.875 68.132812 154.976562 68.035156 155.089844 C 67.96875 155.167969 66.296875 158.488281 61.25 168.582031 C 54.785156 181.511719 54.554688 181.980469 54.542969 182.121094 C 54.507812 182.503906 54.710938 182.84375 55.066406 183.011719 C 55.195312 183.074219 55.230469 183.078125 55.417969 183.078125 C 55.59375 183.078125 55.648438 183.070312 55.75 183.023438 C 55.816406 182.992188 58.753906 181.046875 62.277344 178.699219 L 68.679688 174.429688 L 75.082031 178.699219 C 78.605469 181.046875 81.542969 182.992188 81.609375 183.023438 C 81.710938 183.070312 81.761719 183.078125 81.941406 183.078125 C 82.128906 183.078125 82.164062 183.074219 82.292969 183.011719 C 82.371094 182.976562 82.484375 182.902344 82.539062 182.855469 C 82.734375 182.679688 82.847656 182.363281 82.8125 182.085938 C 82.800781 181.976562 81.964844 180.296875 76.09375 168.550781 C 69.683594 155.730469 69.382812 155.136719 69.28125 155.046875 C 69.0625 154.847656 68.738281 154.765625 68.46875 154.832031 Z M 68.46875 154.832031 " fill-opacity="1" fill-rule="nonzero"/></g><g clip-path="url(#96ce0e6a3d)"><g clip-path="url(#8b15ce8cc5)"><path fill="#5271ff" d="M 160.375 147.503906 L 174.976562 147.503906 L 174.976562 162.105469 L 160.375 162.105469 Z M 160.375 147.503906 " fill-opacity="1" fill-rule="nonzero"/></g></g><g fill="#000000" fill-opacity="1"><g transform="translate(154.375614, 223.244047)"><g><path d="M 6.890625 -58.09375 L 20.328125 -58.09375 L 20.328125 0 L 6.890625 0 Z M 6.890625 -58.09375 "/></g></g></g><g fill="#000000" fill-opacity="1"><g transform="translate(181.597056, 223.244047)"><g><path d="M 53.953125 -10.953125 L 53.953125 0 L 3.15625 0 L 3.15625 -8.71875 L 35.03125 -47.140625 L 3.8125 -47.140625 L 3.8125 -58.09375 L 52.703125 -58.09375 L 52.703125 -49.390625 L 20.921875 -10.953125 Z M 53.953125 -10.953125 "/></g></g></g><g fill="#5271ff" fill-opacity="1"><g transform="translate(243.925769, 205.619048)"><g><path d="M 41.078125 -25.203125 L 32.828125 0 L 26.5625 0 L 21.03125 -17.0625 L 15.296875 0 L 9.078125 0 L 0.796875 -25.203125 L 6.84375 -25.203125 L 12.53125 -7.484375 L 18.46875 -25.203125 L 23.875 -25.203125 L 29.625 -7.34375 L 35.5 -25.203125 Z M 41.078125 -25.203125 "/></g></g></g><g fill="#5271ff" fill-opacity="1"><g transform="translate(285.793851, 205.619048)"><g><path d="M 22.5 -4.6875 L 22.5 0 L 2.984375 0 L 2.984375 -25.203125 L 22.03125 -25.203125 L 22.03125 -20.515625 L 8.78125 -20.515625 L 8.78125 -15.046875 L 20.484375 -15.046875 L 20.484375 -10.515625 L 8.78125 -10.515625 L 8.78125 -4.6875 Z M 22.5 -4.6875 "/></g></g></g><g fill="#5271ff" fill-opacity="1"><g transform="translate(309.949901, 205.619048)"><g><path d="M 21.484375 -13.109375 C 22.929688 -12.648438 24.0625 -11.882812 24.875 -10.8125 C 25.6875 -9.75 26.09375 -8.4375 26.09375 -6.875 C 26.09375 -4.664062 25.234375 -2.96875 23.515625 -1.78125 C 21.804688 -0.59375 19.304688 0 16.015625 0 L 2.984375 0 L 2.984375 -25.203125 L 15.296875 -25.203125 C 18.367188 -25.203125 20.726562 -24.613281 22.375 -23.4375 C 24.019531 -22.257812 24.84375 -20.660156 24.84375 -18.640625 C 24.84375 -17.421875 24.546875 -16.332031 23.953125 -15.375 C 23.367188 -14.414062 22.546875 -13.660156 21.484375 -13.109375 Z M 8.78125 -20.8125 L 8.78125 -14.875 L 14.578125 -14.875 C 16.015625 -14.875 17.101562 -15.125 17.84375 -15.625 C 18.59375 -16.125 18.96875 -16.867188 18.96875 -17.859375 C 18.96875 -18.835938 18.59375 -19.570312 17.84375 -20.0625 C 17.101562 -20.5625 16.015625 -20.8125 14.578125 -20.8125 Z M 15.59375 -4.390625 C 17.125 -4.390625 18.28125 -4.640625 19.0625 -5.140625 C 19.84375 -5.648438 20.234375 -6.429688 20.234375 -7.484375 C 20.234375 -9.578125 18.6875 -10.625 15.59375 -10.625 L 8.78125 -10.625 L 8.78125 -4.390625 Z M 15.59375 -4.390625 "/></g></g></g></svg>