<svg xmlns="http://www.w3.org/2000/svg" xmlns:xlink="http://www.w3.org/1999/xlink" width="500" zoomAndPan="magnify" viewBox="0 0 375 374.999991" height="500" preserveAspectRatio="xMidYMid meet" version="1.0"><defs><g/><clipPath id="e6d6e8d765"><path d="M 136.207031 157.371094 L 164.707031 157.371094 L 164.707031 185.871094 L 136.207031 185.871094 Z M 136.207031 157.371094 " clip-rule="nonzero"/></clipPath><clipPath id="c436087687"><path d="M 199.445312 212.140625 L 214.046875 212.140625 L 214.046875 226.742188 L 199.445312 226.742188 Z M 199.445312 212.140625 " clip-rule="nonzero"/></clipPath><clipPath id="9eef518156"><path d="M 206.746094 212.140625 C 202.714844 212.140625 199.445312 215.410156 199.445312 219.441406 C 199.445312 223.472656 202.714844 226.742188 206.746094 226.742188 C 210.78125 226.742188 214.046875 223.472656 214.046875 219.441406 C 214.046875 215.410156 210.78125 212.140625 206.746094 212.140625 Z M 206.746094 212.140625 " clip-rule="nonzero"/></clipPath></defs><g fill="#000000" fill-opacity="1"><g transform="translate(173.737708, 200.261371)"><g><path d="M 5.59375 -55.953125 L 32.046875 -55.953125 C 38.171875 -55.953125 43.601562 -54.804688 48.34375 -52.515625 C 53.09375 -50.222656 56.769531 -46.96875 59.375 -42.75 C 61.988281 -38.539062 63.296875 -33.613281 63.296875 -27.96875 C 63.296875 -22.320312 61.988281 -17.394531 59.375 -13.1875 C 56.769531 -8.976562 53.09375 -5.726562 48.34375 -3.4375 C 43.601562 -1.144531 38.171875 0 32.046875 0 L 5.59375 0 Z M 31.40625 -12.625 C 36.207031 -12.625 40.054688 -13.984375 42.953125 -16.703125 C 45.859375 -19.421875 47.3125 -23.175781 47.3125 -27.96875 C 47.3125 -32.769531 45.859375 -36.523438 42.953125 -39.234375 C 40.054688 -41.953125 36.207031 -43.3125 31.40625 -43.3125 L 21.421875 -43.3125 L 21.421875 -12.625 Z M 31.40625 -12.625 "/></g></g></g><g fill="#000000" fill-opacity="1"><g transform="translate(137.105736, 231.406877)"><g><path d="M 31.484375 1.125 C 23.148438 1.125 16.671875 -1.144531 12.046875 -5.6875 C 7.429688 -10.226562 5.125 -16.664062 5.125 -25 L 5.125 -56.09375 L 21 -56.09375 L 21 -25.484375 C 21 -16.503906 24.550781 -12.015625 31.65625 -12.015625 C 38.695312 -12.015625 42.21875 -16.503906 42.21875 -25.484375 L 42.21875 -56.09375 L 57.84375 -56.09375 L 57.84375 -25 C 57.84375 -16.664062 55.53125 -10.226562 50.90625 -5.6875 C 46.289062 -1.144531 39.816406 1.125 31.484375 1.125 Z M 31.484375 1.125 "/></g></g></g><g clip-path="url(#e6d6e8d765)"><path fill="#5271ff" d="M 150.324219 157.402344 C 150.160156 157.441406 149.984375 157.546875 149.882812 157.664062 C 149.816406 157.738281 148.125 161.105469 143.007812 171.335938 C 136.460938 184.433594 136.226562 184.910156 136.210938 185.050781 C 136.179688 185.441406 136.382812 185.78125 136.742188 185.953125 C 136.875 186.015625 136.910156 186.023438 137.101562 186.023438 C 137.277344 186.019531 137.335938 186.011719 137.4375 185.964844 C 137.503906 185.933594 140.480469 183.960938 144.050781 181.582031 L 150.539062 177.257812 L 157.023438 181.582031 C 160.59375 183.960938 163.570312 185.933594 163.636719 185.964844 C 163.742188 186.011719 163.796875 186.023438 163.972656 186.023438 C 164.167969 186.023438 164.199219 186.015625 164.332031 185.953125 C 164.414062 185.917969 164.523438 185.84375 164.582031 185.792969 C 164.777344 185.617188 164.894531 185.292969 164.859375 185.015625 C 164.84375 184.902344 164 183.199219 158.050781 171.300781 C 151.554688 158.308594 151.253906 157.710938 151.148438 157.617188 C 150.925781 157.417969 150.597656 157.332031 150.324219 157.402344 Z M 150.324219 157.402344 " fill-opacity="1" fill-rule="nonzero"/></g><g clip-path="url(#c436087687)"><g clip-path="url(#9eef518156)"><path fill="#5271ff" d="M 199.445312 212.140625 L 214.046875 212.140625 L 214.046875 226.742188 L 199.445312 226.742188 Z M 199.445312 212.140625 " fill-opacity="1" fill-rule="nonzero"/></g></g></svg>